# xmcd
#
# Track frame offsets:
#	150
#	16876
#	37453
#	55763
#	76445
#	85076
#	123218
#	138905
#	153068
#	167580
#	186006
#	206573
#	223514
#	244642
#	275452
#	299109
#
# Disc length: 4392 seconds
#
# Revision: 0
# Processed by: cddbd v1.5.2PL0 Copyright (c) Steve Scherf et al.
# Submitted via: EZCDAudioConverter 2.1.7.1
#
DISCID=de112610
DTITLE=The Best Of Quantic 1/2
DYEAR=1900
DGENRE=
TTITLE0=Quantic - Time Is The Enemy
TTITLE1=Quantic Presenta Flowering Inferno - Cuidad Del Swing
TTITLE2=Spanky Wilson and The Quantic Soul Orchestra - I'm Thankful
TTITLE3=Quantic and His Combo Bárbaro - The Dreaming Mind (Part 1)
TTITLE4=Quantic Y Conjunto - Step Into A World (Rapture's Delight)
TTITLE5=Quantic and His Combo Bárbaro - Linda Morena
TTITLE6=Limp Twins - Sunday Driver 
TTITLE7=Quantic - Absence Heard, Presence Felt 
TTITLE8=Quantic Presenta Flowering Inferno - Dog With A Rope
TTITLE9=Quantic and His Combo Bárbaro - Wandering Star
TTITLE10=Kinny featuring The Quantic Soul Orchestra - Enough Said
TTITLE11=Quantic Presenta Flowering Inferno - Echate Pa'lla (Version)
TTITLE12=Quantic Soul Orchestra featuring Kabir - Who Knows
TTITLE13=Quantic and His Combo Bárbaro - New Morning [Slow Version]
TTITLE14=Quantic - Cumbia Clash
TTITLE15=Quantic Soul Orchestra featuring Alice Russell - Left and Right
EXTD=
EXTT0=
EXTT1=
EXTT2=
EXTT3=
EXTT4=
EXTT5=
EXTT6=
EXTT7=
EXTT8=
EXTT9=
EXTT10=
EXTT11=
EXTT12=
EXTT13=
EXTT14=
EXTT15=
PLAYORDER=
